# xmcd
#
# Track frame offsets:
#	150
#	9445
#	19552
#	36932
#	47887
#	62105
#	74522
#	85730
#	97155
#	106760
#	121427
#	131770
#	144175
#	156167
#	168780
#	178717
#	193397
#	207590
#	219190
#	230035
#
# Disc length: 3245
#
# Revision: 2
# Processed by: cddbd v1.5.1PL0 Copyright (c) Steve Scherf et al.
# Submitted via: ExactAudioCopy v0.95a3
# Normalized: r1:DSETVAR1
#
DISCID=1f0cab14
DTITLE=Various Artist - Truck Drivin' Man
DYEAR=1900
DGENRE=Country
TTITLE0=Glen Campbell - Truck Driving Man
TTITLE1=Merle Haggard - Movin' On
TTITLE2=Dan Seals - Big Wheels In The Moonlight
TTITLE3=Del Reeves - Trucker's Paradise
TTITLE4=Red Simpson - I'm A Truck
TTITLE5=Asleep At The Wheel - I've Been Everywhere
TTITLE6=Dick Curless - Big Wheel Canonball
TTITLE7=Dave Dudley - Six Days On The Road
TTITLE8=Kay Adams - Six Days Awaiting
TTITLE9=John Stewart - Big Joe
TTITLE10=Dave Dudley - Rollin' Rig
TTITLE11=Red Simpson - Roll Truck Roll
TTITLE12=Del Reeves - Girl On The Billboard
TTITLE13=Merle Haggard - White Line Fever
TTITLE14=Kay Adams - Little Pink Mack
TTITLE15=Dick Curless - Tombstone Every Mile
TTITLE16=Red Simpson - Truck Drivers Blues
TTITLE17=Dave Dudley - Texas Ruby
TTITLE18=Del Reeves - Lookin' At The World Through A Windshield
TTITLE19=Brush Arbor - Trucker And The Ufo
EXTD=
EXTT0=
EXTT1=
EXTT2=
EXTT3=
EXTT4=
EXTT5=
EXTT6=
EXTT7=
EXTT8=
EXTT9=
EXTT10=
EXTT11=
EXTT12=
EXTT13=
EXTT14=
EXTT15=
EXTT16=
EXTT17=
EXTT18=
EXTT19=
PLAYORDER=
